<svg width="54" height="28" viewBox="0 0 54 28" fill="none" xmlns="http://www.w3.org/2000/svg">
<path d="M1.77644 10.541H5.44983L15.632 0H30.0841L41.6874 10.541L51.2512 12.7018C52.4235 12.8744 53.2905 14.0246 53.2905 15.3802V23.6865H46.973L46.9208 23.6867V23.6865H46.8958C46.8958 19.4882 43.954 16.0868 40.3234 16.0868C36.6922 16.0868 33.7508 19.4882 33.7508 23.6865H17.9196L17.7886 23.6867V23.6865H17.7636C17.7636 19.4882 14.8219 16.0868 11.1912 16.0868C7.56031 16.0868 4.61883 19.4882 4.61883 23.6865H0.000160217V12.5949C0.000160217 11.4612 0.795769 10.541 1.77644 10.541ZM36.7603 10.5189L29.0966 3.55757H19.9269L19.8952 3.55769V10.5412H29.4332L36.7603 10.5189ZM17.0531 3.55745H16.7189L12.0793 8.36378V10.5409H17.0531V3.55745Z" fill="white"/>
<path d="M11.1911 19.3735C13.2516 19.3735 14.9214 21.3125 14.9214 23.6869C14.9214 26.0696 13.2516 28.0003 11.1911 28.0003C9.13751 28.0003 7.46074 26.0696 7.46074 23.6869C7.46074 21.3125 9.1374 19.3735 11.1911 19.3735Z" fill="white"/>
<path d="M40.3234 19.3735C42.3839 19.3735 44.0537 21.3125 44.0537 23.6869C44.0537 26.0696 42.3839 28.0003 40.3234 28.0003C38.2698 28.0003 36.5931 26.0696 36.5931 23.6869C36.5931 21.3125 38.2698 19.3735 40.3234 19.3735Z" fill="white"/>
</svg>
