<svg width="40" height="40" viewBox="0 0 40 40" fill="none" xmlns="http://www.w3.org/2000/svg">
<path fill-rule="evenodd" clip-rule="evenodd" d="M5 3.33333C4.07953 3.33333 3.33333 4.07953 3.33333 5V10C3.33333 10.9205 4.07953 11.6667 5 11.6667H10C10.9205 11.6667 11.6667 10.9205 11.6667 10V5C11.6667 4.07953 10.9205 3.33333 10 3.33333H5ZM5 0H10C12.7614 0 15 2.23858 15 5V10C15 12.7614 12.7614 15 10 15H5C2.23858 15 0 12.7614 0 10V5C0 2.23858 2.23858 0 5 0ZM23.3333 26.6667H35C37.7615 26.6667 40 28.9052 40 31.6667V35C40 37.7615 37.7615 40 35 40H23.3333C20.5718 40 18.3333 37.7615 18.3333 35V31.6667C18.3333 28.9052 20.5718 26.6667 23.3333 26.6667ZM23.3333 30C22.4128 30 21.6667 30.7462 21.6667 31.6667V35C21.6667 35.9205 22.4128 36.6667 23.3333 36.6667H35C35.9205 36.6667 36.6667 35.9205 36.6667 35V31.6667C36.6667 30.7462 35.9205 30 35 30H23.3333ZM5 18.3333H10C12.7614 18.3333 15 20.5718 15 23.3333V35C15 37.7615 12.7614 40 10 40H5C2.23858 40 0 37.7615 0 35V23.3333C0 20.5718 2.23858 18.3333 5 18.3333ZM5 21.6667C4.07953 21.6667 3.33333 22.4128 3.33333 23.3333V35C3.33333 35.9205 4.07953 36.6667 5 36.6667H10C10.9205 36.6667 11.6667 35.9205 11.6667 35V23.3333C11.6667 22.4128 10.9205 21.6667 10 21.6667H5ZM35 0C37.7615 0 40 2.23858 40 5V18.3333C40 21.0948 37.7615 23.3333 35 23.3333H23.3333C20.5718 23.3333 18.3333 21.0948 18.3333 18.3333V5C18.3333 2.23858 20.5718 0 23.3333 0H35ZM21.6667 5V18.3333C21.6667 19.2538 22.4128 20 23.3333 20H35C35.9205 20 36.6667 19.2538 36.6667 18.3333V5C36.6667 4.07953 35.9205 3.33333 35 3.33333H23.3333C22.4128 3.33333 21.6667 4.07953 21.6667 5Z" fill="white"/>
</svg>
