<svg width="39" height="50" viewBox="0 0 39 50" fill="none" xmlns="http://www.w3.org/2000/svg">
<path d="M28.5052 13.4547H28.2393L28.0088 13.3661C27.9385 13.3414 27.8726 13.3055 27.8138 13.2597L27.6365 13.1356C27.5611 13.1153 27.4815 13.1153 27.4061 13.1356H25.6333H25.4738C25.456 13.1812 25.456 13.2319 25.4738 13.2775C25.4774 13.5865 25.5697 13.888 25.7397 14.1461C25.925 14.4362 26.1812 14.6742 26.4843 14.8375C26.8761 15.0622 27.3111 15.2011 27.7606 15.2452V15.9543C27.7388 16.0114 27.7388 16.0745 27.7606 16.1316C27.7887 16.1433 27.8188 16.1493 27.8493 16.1493C27.8797 16.1493 27.9098 16.1433 27.9379 16.1316H29.0902C29.1182 16.1433 29.1484 16.1493 29.1788 16.1493C29.2092 16.1493 29.2393 16.1433 29.2674 16.1316C29.3173 16.085 29.3488 16.0221 29.3561 15.9543V15.2452C29.7783 15.1795 30.1861 15.0415 30.5615 14.8375C30.8778 14.6807 31.1561 14.4569 31.377 14.1816C31.5628 13.8708 31.661 13.5155 31.661 13.1534C31.661 12.7913 31.5628 12.4359 31.377 12.1252C31.1754 11.8201 30.8844 11.5848 30.5438 11.4516C30.0519 11.2489 29.5317 11.1234 29.0015 11.0793L28.3633 10.8843C28.2526 10.863 28.149 10.8142 28.062 10.7425C28.0295 10.7138 28.005 10.6771 27.9911 10.6361C27.9909 10.5973 28.0006 10.559 28.0192 10.5249C28.0378 10.4908 28.0647 10.462 28.0974 10.4411C28.2131 10.4066 28.3363 10.4066 28.452 10.4411C28.5574 10.421 28.6657 10.421 28.7711 10.4411L28.9483 10.5652C28.9962 10.6167 29.0577 10.6535 29.1256 10.6716C29.1952 10.6913 29.2688 10.6913 29.3383 10.6716H31.2352C31.2813 10.6865 31.3309 10.6865 31.377 10.6716C31.3945 10.6198 31.3945 10.5637 31.377 10.512C31.3622 10.2571 31.2762 10.0114 31.1288 9.80292C30.9389 9.52427 30.6984 9.28374 30.4197 9.09383C30.0699 8.88176 29.6861 8.73182 29.2852 8.65064V7.87064C29.2822 7.79656 29.2504 7.72656 29.1965 7.67564C29.1386 7.6589 29.0772 7.6589 29.0193 7.67564H27.867C27.8091 7.6589 27.7476 7.6589 27.6897 7.67564C27.665 7.7383 27.665 7.80799 27.6897 7.87064V8.52655C27.1056 8.60864 26.5609 8.8686 26.1297 9.2711C25.9456 9.45052 25.8003 9.6658 25.7027 9.90364C25.6051 10.1415 25.5574 10.3968 25.5624 10.6538C25.5386 11.0339 25.6378 11.4115 25.8454 11.7308C26.0529 12.0501 26.3577 12.294 26.7147 12.4266C27.1285 12.6013 27.5637 12.7206 28.0088 12.7811C28.26 12.8019 28.509 12.8434 28.7533 12.9052C28.8892 12.925 29.021 12.9669 29.1433 13.0293C29.175 13.0513 29.2011 13.0804 29.2196 13.1142C29.238 13.1481 29.2483 13.1857 29.2497 13.2243C29.2497 13.3129 29.2497 13.3661 29.0547 13.4193C28.8753 13.4652 28.689 13.4772 28.5052 13.4547Z" fill="white"/>
<path d="M33.9477 0H10.4945C8.98029 0.000942806 7.52766 0.599831 6.45273 1.66636L1.66636 6.45273C0.599831 7.52766 0.000942806 8.98029 0 10.4945V44.5841C0.00467197 45.9226 0.538463 47.2049 1.48494 48.1514C2.43141 49.0979 3.71376 49.6317 5.05227 49.6364H10.6364C11.1065 49.6364 11.5574 49.4496 11.8899 49.1171C12.2223 48.7847 12.4091 48.3338 12.4091 47.8636C12.4091 47.3935 12.2223 46.9426 11.8899 46.6101C11.5574 46.2777 11.1065 46.0909 10.6364 46.0909H5.05227C4.85439 46.0909 4.65845 46.0519 4.47564 45.9762C4.29282 45.9005 4.12671 45.7895 3.98679 45.6496C3.84687 45.5097 3.73588 45.3435 3.66015 45.1607C3.58443 44.9779 3.54545 44.782 3.54545 44.5841V12.4091H10.6364C11.1065 12.4091 11.5574 12.2223 11.8899 11.8899C12.2223 11.5574 12.4091 11.1065 12.4091 10.6364V3.54545H33.9477C34.1456 3.54545 34.3415 3.58443 34.5244 3.66015C34.7072 3.73588 34.8733 3.84687 35.0132 3.98679C35.1531 4.12671 35.2641 4.29282 35.3398 4.47564C35.4156 4.65845 35.4545 4.85439 35.4545 5.05227V8.86364C35.4545 9.33379 35.6413 9.78469 35.9738 10.1171C36.3062 10.4496 36.7571 10.6364 37.2273 10.6364C37.6974 10.6364 38.1483 10.4496 38.4808 10.1171C38.8132 9.78469 39 9.33379 39 8.86364V5.05227C38.9953 3.71376 38.4615 2.43141 37.5151 1.48494C36.5686 0.538464 35.2862 0.00467197 33.9477 0ZM8.86364 8.86364H4.27227L8.86364 4.27227V8.86364Z" fill="white"/>
<path d="M37.2273 14.1816C36.7572 14.1816 36.3063 14.3684 35.9738 14.7009C35.6414 15.0333 35.4546 15.4842 35.4546 15.9544V44.5839C35.4546 44.7818 35.4156 44.9777 35.3399 45.1605C35.2642 45.3434 35.1532 45.5095 35.0133 45.6494C34.8733 45.7893 34.7072 45.9003 34.5244 45.976C34.3416 46.0518 34.1456 46.0907 33.9478 46.0907H17.7273C17.2572 46.0907 16.8063 46.2775 16.4738 46.61C16.1414 46.9424 15.9546 47.3933 15.9546 47.8635C15.9546 48.3336 16.1414 48.7845 16.4738 49.117C16.8063 49.4494 17.2572 49.6362 17.7273 49.6362H33.9478C35.2863 49.6315 36.5686 49.0977 37.5151 48.1512C38.4616 47.2048 38.9954 45.9224 39 44.5839V15.9544C39 15.4842 38.8133 15.0333 38.4808 14.7009C38.1484 14.3684 37.6975 14.1816 37.2273 14.1816Z" fill="white"/>
<path d="M8.86355 24.8184H23.0454C23.5155 24.8184 23.9664 24.6316 24.2989 24.2992C24.6313 23.9667 24.8181 23.5158 24.8181 23.0457C24.8181 22.5755 24.6313 22.1246 24.2989 21.7922C23.9664 21.4597 23.5155 21.2729 23.0454 21.2729H8.86355C8.39339 21.2729 7.94249 21.4597 7.61004 21.7922C7.27759 22.1246 7.09082 22.5755 7.09082 23.0457C7.09082 23.5158 7.27759 23.9667 7.61004 24.2992C7.94249 24.6316 8.39339 24.8184 8.86355 24.8184Z" fill="white"/>
<path d="M8.86355 31.9092H26.5908C27.061 31.9092 27.5119 31.7225 27.8443 31.39C28.1768 31.0576 28.3635 30.6067 28.3635 30.1365C28.3635 29.6663 28.1768 29.2154 27.8443 28.883C27.5119 28.5505 27.061 28.3638 26.5908 28.3638H8.86355C8.39339 28.3638 7.94249 28.5505 7.61004 28.883C7.27759 29.2154 7.09082 29.6663 7.09082 30.1365C7.09082 30.6067 7.27759 31.0576 7.61004 31.39C7.94249 31.7225 8.39339 31.9092 8.86355 31.9092Z" fill="white"/>
<path d="M8.86355 39H26.5908C27.061 39 27.5119 38.8133 27.8443 38.4808C28.1768 38.1484 28.3635 37.6975 28.3635 37.2273C28.3635 36.7572 28.1768 36.3063 27.8443 35.9738C27.5119 35.6414 27.061 35.4546 26.5908 35.4546H8.86355C8.39339 35.4546 7.94249 35.6414 7.61004 35.9738C7.27759 36.3063 7.09082 36.7572 7.09082 37.2273C7.09082 37.6975 7.27759 38.1484 7.61004 38.4808C7.94249 38.8133 8.39339 39 8.86355 39Z" fill="white"/>
</svg>
