<svg width="45" height="39" viewBox="0 0 45 39" fill="none" xmlns="http://www.w3.org/2000/svg">
<path d="M40.5643 0H4.43571C3.26059 0.00513812 2.13481 0.573819 1.30387 1.58203C0.472927 2.59024 0.00423471 3.95619 0 5.382V33.618C0.00423471 35.0438 0.472927 36.4098 1.30387 37.418C2.13481 38.4262 3.26059 38.9949 4.43571 39H40.5643C41.7394 38.9949 42.8652 38.4262 43.6961 37.418C44.5271 36.4098 44.9958 35.0438 45 33.618V5.382C44.9958 3.95619 44.5271 2.59024 43.6961 1.58203C42.8652 0.573819 41.7394 0.00513812 40.5643 0ZM39.1982 3.9L23.5125 19.0515C23.2262 19.3333 22.8687 19.4871 22.5 19.4871C22.1313 19.4871 21.7738 19.3333 21.4875 19.0515L5.80179 3.9H39.1982ZM40.5643 35.1H4.43571C4.27531 35.1 4.11648 35.0617 3.96829 34.9872C3.8201 34.9127 3.68545 34.8036 3.57203 34.6659C3.45861 34.5283 3.36864 34.3649 3.30726 34.1851C3.24588 34.0053 3.21429 33.8126 3.21429 33.618V6.318L19.4786 22.035C20.335 22.8706 21.401 23.3262 22.5 23.3262C23.599 23.3262 24.665 22.8706 25.5214 22.035L41.7857 6.396V33.696C41.7692 34.0754 41.6333 34.4326 41.406 34.6939C41.1787 34.9551 40.8774 35.1005 40.5643 35.1Z" fill="white"/>
</svg>
