<svg width="107" height="107" viewBox="0 0 107 107" fill="none" xmlns="http://www.w3.org/2000/svg">
<path d="M53.5 104.5C81.6665 104.5 104.5 81.6665 104.5 53.5C104.5 25.3335 81.6665 2.5 53.5 2.5C25.3335 2.5 2.5 25.3335 2.5 53.5C2.5 81.6665 25.3335 104.5 53.5 104.5Z" stroke="#CECECE" stroke-width="5"/>
<path d="M81.5 43.574V68.1391C81.5 74.5658 81.5 77.7793 80.192 80.234C79.0416 82.3933 77.206 84.149 74.948 85.2492C72.3808 86.5 69.0208 86.5 62.3 86.5H44.7C37.9794 86.5 34.619 86.5 32.0521 85.2492C29.7942 84.149 27.9584 82.3933 26.8079 80.234C25.5 77.7793 25.5 74.5658 25.5 68.1391V43.5715M89.5 52.0734L67.7672 28.9843C62.8244 23.7332 60.3532 21.1077 57.4424 20.1384C54.8864 19.287 52.104 19.2872 49.5476 20.1389C46.6372 21.1086 44.1664 23.7345 39.2246 28.9863L17.5 52.0734M61.5 52.0734C61.5 56.2983 57.9184 59.7237 53.5 59.7237C49.0816 59.7237 45.5 56.2983 45.5 52.0734C45.5 47.8481 49.0816 44.4228 53.5 44.4228C57.9184 44.4228 61.5 47.8481 61.5 52.0734Z" stroke="#CECECE" stroke-width="5" stroke-linecap="round" stroke-linejoin="round"/>
</svg>
