<svg width="107" height="107" viewBox="0 0 107 107" fill="none" xmlns="http://www.w3.org/2000/svg">
<path d="M53.5 104.5C81.6665 104.5 104.5 81.6665 104.5 53.5C104.5 25.3335 81.6665 2.5 53.5 2.5C25.3335 2.5 2.5 25.3335 2.5 53.5C2.5 81.6665 25.3335 104.5 53.5 104.5Z" stroke="#CECECE" stroke-width="5"/>
<path d="M25.5 44.2778V34.9444C25.5 33.2262 27.1715 31.8333 29.2333 31.8333H36M25.5 44.2778V75.3889C25.5 77.1072 27.1715 78.5 29.2333 78.5H77.7667C79.8286 78.5 81.5 77.1072 81.5 75.3889V44.2778M25.5 44.2778H81.5M36 31.8333V22.5M36 31.8333H69.2502M81.5 44.2778V34.9444C81.5 33.2262 79.8286 31.8333 77.7667 31.8333H69.2502M69.2502 31.8333V22.5" stroke="#CECECE" stroke-width="5" stroke-linecap="round" stroke-linejoin="round"/>
</svg>
