<svg width="667" height="500" viewBox="0 0 667 500" fill="none" xmlns="http://www.w3.org/2000/svg">
<path d="M454.379 71.8383C463.402 68.4933 473.159 66.666 483.346 66.666C529.369 66.666 566.679 103.976 566.679 149.999C566.679 196.023 529.369 233.333 483.346 233.333C473.159 233.333 463.402 231.506 454.379 228.159" stroke="#0ddf57" stroke-width="66.6667" stroke-linecap="round"/>
<path d="M33.3418 466.666C56.3875 389.759 115.674 366.666 250.008 366.666C384.342 366.666 443.628 389.759 466.675 466.666" stroke="#0ddf57" stroke-width="66.6667" stroke-linecap="round"/>
<path d="M500.01 333.333C580.11 336.5 617.65 354.61 633.343 400" stroke="#0ddf57" stroke-width="66.6667" stroke-linecap="round"/>
<path d="M366.675 150C366.675 214.433 314.442 266.666 250.008 266.666C185.575 266.666 133.342 214.433 133.342 150C133.342 85.5663 185.575 33.333 250.008 33.333C314.442 33.333 366.675 85.5663 366.675 150Z" stroke="#0ddf57" stroke-width="66.6667"/>
</svg>
