<svg width="790" height="790" viewBox="0 0 790 790" fill="#b97e10" xmlns="http://www.w3.org/2000/svg">
<path fill-rule="evenodd" clip-rule="evenodd" d="M600.606 227.185L650.881 222.482C658.328 221.755 665.243 218.501 670.482 213.26L730.709 153.033C739.429 144.313 752.449 141.389 764.34 145.48C776.231 149.572 784.952 159.976 786.867 172.356C798.18 244.352 768.971 315.751 710.928 357.988C652.885 400.225 575.485 406.402 509.694 374.048L114.006 769.736C87.9256 795.816 45.6408 795.816 19.5603 769.736C-6.52011 743.655 -6.52011 701.371 19.5603 675.29L415.294 279.556C382.99 213.764 389.19 136.394 431.415 78.3668C473.64 20.3394 545.004 -8.88118 616.986 2.38295C629.366 4.29834 639.771 13.0195 643.862 24.9105C647.953 36.8015 645.029 49.8212 636.309 58.5414L576.451 118.4C570.97 123.905 567.687 131.238 567.195 139.072L563.776 191.46C563.146 201.219 566.899 210.858 574.017 217.762C581.134 224.666 590.879 228.12 600.606 227.185ZM60.2096 729.181C71.3674 740.339 89.4578 740.339 100.616 729.181C111.774 718.023 111.774 699.933 100.616 688.775C89.4578 677.617 71.3674 677.617 60.2096 688.775C49.0517 699.933 49.0517 718.023 60.2096 729.181Z" fill="#fd5000"/>
</svg>
